<svg width="56" height="56" viewBox="0 0 56 56" fill="none" xmlns="http://www.w3.org/2000/svg">
<path fill-rule="evenodd" clip-rule="evenodd" d="M15.0934 7.087L24.5788 25.7575C25.1355 25.6753 25.7044 25.6038 26.2857 25.5436V3.48738C22.1977 3.76886 18.3872 5.04951 15.0934 7.087ZM29.7143 3.48738V25.3285C30.2515 25.3156 30.7981 25.3119 31.3541 25.3177L40.8871 7.07495C37.5978 5.04446 33.7942 3.76831 29.7143 3.48738ZM43.699 9.09685L35.1311 25.4928C35.5009 25.5203 35.8937 25.5512 36.3066 25.5855L49.7504 16.5573C48.2379 13.6887 46.1739 11.1546 43.699 9.09685ZM51.1514 19.7464L41.6572 26.1222C45.2258 26.5423 49.2125 27.1421 52.5714 27.9538C52.5661 25.0727 52.0656 22.3107 51.1514 19.7464ZM43.0372 29.7485C40.7333 29.4473 38.5019 29.2169 36.6132 29.0525C35.6628 28.9697 34.807 28.9043 34.0822 28.8554C33.4848 28.815 32.8995 28.7859 32.3261 28.7676C31.3616 28.7367 30.4306 28.7361 29.5322 28.7632C29.0491 28.7777 28.5754 28.8003 28.111 28.8304C27.7559 28.8535 27.4063 28.8809 27.0619 28.9126C26.2918 28.9835 25.5482 29.0757 24.8303 29.187L24.5676 27.4929L24.8303 29.187C24.5247 29.2344 24.2237 29.2852 23.9274 29.3394C23.1378 29.4838 22.3806 29.6517 21.6546 29.8403C21.0009 30.0102 20.38 30.1966 19.7903 30.3972C11.3394 33.2724 8.93528 39.2225 8.08282 42.3929C12.5496 48.5629 19.8069 52.5714 28 52.5714C30.4894 52.5714 32.8901 52.2018 35.1516 51.5149C32.7872 49.2165 31.2363 46.8543 30.5422 44.4882C29.6296 41.3769 30.2523 38.4236 32.143 35.959C33.9864 33.5561 36.9609 31.7018 40.6674 30.4458C41.4228 30.1899 42.2133 29.9571 43.0372 29.7485ZM38.7094 50.1215C35.9055 47.7153 34.4014 45.4635 33.8322 43.5232C33.237 41.4942 33.6177 39.6694 34.8633 38.0459C36.1561 36.3607 38.4507 34.817 41.7677 33.693C44.6248 32.7249 48.1564 32.0981 52.257 31.9427C50.9636 39.9635 45.7852 46.6893 38.7094 50.1215ZM5.79885 38.5436C7.23003 35.2245 10.0479 31.077 15.817 28.3161L4.79826 19.8891C3.91121 22.4268 3.42857 25.1556 3.42857 28C3.42857 31.7755 4.27907 35.3495 5.79885 38.5436ZM6.20262 16.6468L19.5668 26.8675C19.9652 26.746 20.3737 26.6307 20.7925 26.5219C20.8892 26.4968 20.9862 26.4721 21.0838 26.4476L12.2784 9.11568C9.78787 11.1915 7.71464 13.7502 6.20262 16.6468ZM11.885 5.09958C16.4423 1.88704 22.0034 0 28 0C33.9946 0 39.5539 1.88578 44.1104 5.09635C48.1692 7.95618 51.4341 11.8681 53.5086 16.4382C55.1094 19.9648 56 23.8807 56 28C56 28.7752 55.9685 29.5434 55.9065 30.3033L55.9042 30.3315C55.0375 40.8372 48.375 49.6922 39.1278 53.7011C35.7148 55.1807 31.9509 56 28 56C18.3514 56 9.8435 51.1182 4.81102 43.6977C1.77422 39.2199 0 33.8145 0 28C0 23.885 0.88879 19.9729 2.48651 16.4491C4.55997 11.8761 7.82517 7.9614 11.885 5.09958Z" fill="url(#paint0_linear_3068_2691)"/>
<defs>
<linearGradient id="paint0_linear_3068_2691" x1="0" y1="0" x2="56" y2="56" gradientUnits="userSpaceOnUse">
<stop offset="0.104757" stop-color="#149EED"/>
<stop offset="0.895243" stop-color="#B440FC"/>
</linearGradient>
</defs>
</svg>
